<svg xmlns="http://www.w3.org/2000/svg" xmlns:xlink="http://www.w3.org/1999/xlink" preserveAspectRatio="xMidYMid meet" version="1.0" viewBox="-1.7 0.0 228.8 175.9" zoomAndPan="magnify" style="fill: rgb(0, 0, 0);" original_string_length="1205" width="1600px" height="1229.69px"><g><linearGradient xmlns:xlink="http://www.w3.org/1999/xlink" gradientUnits="userSpaceOnUse" id="__id142_svlfdfm81n" x1="0" x2="207.654" xlink:actuate="onLoad" xlink:show="other" xlink:type="simple" y1="96.307" y2="96.307"><stop offset="0" style="stop-color: rgb(101, 31, 255);"/><stop offset=".998" style="stop-color: rgb(49, 27, 146);"/></linearGradient><path d="M187.2,68.6c1.4-3.9,2.1-8.2,2-12.6C189,36.6,173.3,20.5,154,19.7c-11.4-0.5-21.8,4.3-28.9,12 c-6.5,7.1-17.3,8.2-25.4,3.1c-10.9-6.9-23.9-10.6-37.9-10C28.6,26.4,1.7,53.3,0.1,86.5c-1.8,37.3,28,68.1,64.9,68.1 c10.7,0,20.9-2.6,29.8-7.2c8.8-4.6,19.5-2.2,25.4,5.8c10.6,14.4,29,22.7,48.9,18.7c17.1-3.4,34.2-20.6,37.6-37.8 c3.4-17.7-2.8-34.2-14.3-45C186.8,84,184.7,75.9,187.2,68.6z M130.1,85.8c-0.1,0.1-0.1,0.1-0.2,0.2c0-0.1,0-0.2,0-0.4 C129.9,85.7,130,85.8,130.1,85.8z" style="fill: url(&quot;#__id142_svlfdfm81n&quot;);"/><circle cx="106" cy="9.5" r="9.5" style="fill: url(&quot;#__id142_svlfdfm81n&quot;);"/><circle cx="102.7" cy="162.4" r="6.1" style="fill: url(&quot;#__id142_svlfdfm81n&quot;);"/><circle cx="211.1" cy="70" r="16" style="fill: url(&quot;#__id142_svlfdfm81n&quot;);"/></g></svg>